<svg width="32" height="32" viewBox="0 0 32 32" fill="none" xmlns="http://www.w3.org/2000/svg">
<g filter="url(#filter0_d_2071_5)">
<path d="M21.4213 11.9933C21.5169 11.9011 21.5931 11.7908 21.6456 11.6688C21.698 11.5469 21.7257 11.4156 21.7269 11.2829C21.7281 11.1501 21.7029 11.0184 21.6527 10.8955C21.6024 10.7726 21.5282 10.6609 21.4344 10.5669C21.3405 10.473 21.2289 10.3987 21.1061 10.3484C20.9832 10.298 20.8515 10.2727 20.7187 10.2737C20.586 10.2748 20.4547 10.3024 20.3327 10.3547C20.2107 10.4071 20.1003 10.4832 20.008 10.5787L16 14.5853L11.9933 10.5787C11.9018 10.4804 11.7914 10.4016 11.6687 10.3469C11.546 10.2923 11.4136 10.2629 11.2794 10.2605C11.1451 10.2582 11.0117 10.2829 10.8872 10.3332C10.7627 10.3835 10.6496 10.4583 10.5546 10.5533C10.4597 10.6482 10.3848 10.7613 10.3345 10.8859C10.2842 11.0104 10.2595 11.1437 10.2619 11.278C10.2642 11.4123 10.2936 11.5447 10.3483 11.6674C10.4029 11.79 10.4817 11.9004 10.58 11.992L14.584 16L10.5773 20.0067C10.4007 20.1962 10.3045 20.4469 10.3091 20.706C10.3137 20.9651 10.4186 21.2123 10.6018 21.3955C10.7851 21.5787 11.0322 21.6836 11.2913 21.6882C11.5504 21.6928 11.8011 21.5966 11.9907 21.42L16 17.4133L20.0067 21.4213C20.1962 21.598 20.447 21.6941 20.706 21.6896C20.9651 21.685 21.2123 21.58 21.3955 21.3968C21.5787 21.2136 21.6837 20.9664 21.6882 20.7073C21.6928 20.4483 21.5966 20.1976 21.42 20.008L17.416 16L21.4213 11.9933Z" fill="black" fill-opacity="0.3"/>
</g>
<defs>
<filter id="filter0_d_2071_5" x="-4" y="0" width="40" height="40" filterUnits="userSpaceOnUse" color-interpolation-filters="sRGB">
<feFlood flood-opacity="0" result="BackgroundImageFix"/>
<feColorMatrix in="SourceAlpha" type="matrix" values="0 0 0 0 0 0 0 0 0 0 0 0 0 0 0 0 0 0 127 0" result="hardAlpha"/>
<feOffset dy="4"/>
<feGaussianBlur stdDeviation="2"/>
<feComposite in2="hardAlpha" operator="out"/>
<feColorMatrix type="matrix" values="0 0 0 0 1 0 0 0 0 1 0 0 0 0 1 0 0 0 0.1 0"/>
<feBlend mode="normal" in2="BackgroundImageFix" result="effect1_dropShadow_2071_5"/>
<feBlend mode="normal" in="SourceGraphic" in2="effect1_dropShadow_2071_5" result="shape"/>
</filter>
</defs>
</svg>
