<svg width="16" height="13" viewBox="0 0 16 13" fill="none" xmlns="http://www.w3.org/2000/svg">
<path d="M8.00035 2.09913C9.33755 2.09432 10.6489 2.50466 11.7835 3.28299C12.9182 4.06131 13.8302 5.17604 14.4147 6.49904C13.8267 7.81915 12.9139 8.93136 11.7799 9.70925C10.646 10.4871 9.33639 10.8995 8 10.8995C6.66361 10.8995 5.35402 10.4871 4.22006 9.70925C3.0861 8.93136 2.17325 7.81915 1.58525 6.49904C2.16982 5.17592 3.08193 4.06112 4.21675 3.28278C5.35157 2.50445 6.66302 2.09418 8.00035 2.09913ZM8.00035 0.5C6.27331 0.501054 4.58655 1.07399 3.15964 2.14423C1.73272 3.21447 0.631742 4.73244 0 6.50056C0.631079 8.26901 1.73188 9.78729 3.15889 10.8574C4.5859 11.9276 6.27292 12.5 8 12.5C9.72708 12.5 11.4141 11.9276 12.8411 10.8574C14.2681 9.78729 15.3689 8.26901 16 6.50056C15.3683 4.73256 14.2674 3.21467 12.8406 2.14444C11.4139 1.07421 9.72727 0.501207 8.00035 0.5ZM8.00035 4.50012C8.36002 4.50012 8.71162 4.61744 9.01067 4.83725C9.30973 5.05706 9.54282 5.36949 9.68046 5.73502C9.8181 6.10056 9.85412 6.50278 9.78395 6.89082C9.71378 7.27887 9.54058 7.63532 9.28625 7.91508C9.03192 8.19485 8.70789 8.38537 8.35513 8.46256C8.00236 8.53975 7.63671 8.50013 7.30442 8.34872C6.97212 8.19732 6.68811 7.94091 6.48828 7.61194C6.28846 7.28297 6.1818 6.89621 6.1818 6.50056C6.1818 5.97001 6.3734 5.46119 6.71444 5.08603C7.05548 4.71088 7.51804 4.50012 8.00035 4.50012ZM8.00035 2.90098C7.35301 2.90098 6.72022 3.11214 6.18198 3.50775C5.64375 3.90336 5.22424 4.46566 4.97652 5.12353C4.7288 5.78141 4.66398 6.50531 4.79027 7.20371C4.91656 7.90211 5.22828 8.54363 5.68601 9.04714C6.14374 9.55066 6.72693 9.89356 7.36182 10.0325C7.99672 10.1714 8.6548 10.1001 9.25285 9.8276C9.85091 9.55509 10.3621 9.09363 10.7217 8.50156C11.0814 7.90949 11.2733 7.2134 11.2733 6.50132C11.2722 5.54675 10.9271 4.63162 10.3135 3.95656C9.69997 3.28151 8.86812 2.9024 8.00035 2.90098Z" fill="black"/>
</svg>
