<svg width="26" height="18" viewBox="0 0 26 18" fill="none" xmlns="http://www.w3.org/2000/svg">
<path d="M1.09865 17.5255C0.955976 17.5299 0.813881 17.5055 0.680789 17.454C0.547697 17.4024 0.42632 17.3246 0.323856 17.2252C0.221392 17.1259 0.139928 17.0069 0.0842967 16.8755C0.0286655 16.744 0 16.6027 0 16.46C0 16.3173 0.0286655 16.176 0.0842967 16.0445C0.139928 15.9131 0.221392 15.7941 0.323856 15.6948C0.42632 15.5954 0.547697 15.5176 0.680789 15.466C0.813881 15.4145 0.955976 15.3901 1.09865 15.3945H24.5446C24.6873 15.3901 24.8294 15.4145 24.9625 15.466C25.0956 15.5176 25.217 15.5954 25.3194 15.6948C25.4219 15.7941 25.5034 15.9131 25.559 16.0445C25.6146 16.176 25.6433 16.3173 25.6433 16.46C25.6433 16.6027 25.6146 16.744 25.559 16.8755C25.5034 17.0069 25.4219 17.1259 25.3194 17.2252C25.217 17.3246 25.0956 17.4024 24.9625 17.454C24.8294 17.5055 24.6873 17.5299 24.5446 17.5255H1.09865ZM1.09865 10.0655C0.955976 10.0699 0.813881 10.0455 0.680789 9.99396C0.547697 9.94238 0.42632 9.8646 0.323856 9.76523C0.221392 9.66586 0.139928 9.54692 0.0842967 9.41547C0.0286655 9.28402 0 9.14274 0 9C0 8.85726 0.0286655 8.71598 0.0842967 8.58453C0.139928 8.45308 0.221392 8.33414 0.323856 8.23477C0.42632 8.13539 0.547697 8.05761 0.680789 8.00603C0.813881 7.95445 0.955976 7.93013 1.09865 7.9345H24.5446C24.6873 7.93013 24.8294 7.95445 24.9625 8.00603C25.0956 8.05761 25.217 8.13539 25.3194 8.23477C25.4219 8.33414 25.5034 8.45308 25.559 8.58453C25.6146 8.71598 25.6433 8.85726 25.6433 9C25.6433 9.14274 25.6146 9.28402 25.559 9.41547C25.5034 9.54692 25.4219 9.66586 25.3194 9.76523C25.217 9.8646 25.0956 9.94238 24.9625 9.99396C24.8294 10.0455 24.6873 10.0699 24.5446 10.0655H1.09865ZM1.09865 2.6055C0.955976 2.60987 0.813881 2.58554 0.680789 2.53396C0.547697 2.48238 0.42632 2.4046 0.323856 2.30523C0.221392 2.20586 0.139928 2.08692 0.0842967 1.95547C0.0286655 1.82402 0 1.68274 0 1.54C0 1.39726 0.0286655 1.25598 0.0842967 1.12453C0.139928 0.99308 0.221392 0.874141 0.323856 0.774768C0.42632 0.675395 0.547697 0.597612 0.680789 0.546032C0.813881 0.494453 0.955976 0.470128 1.09865 0.474499H17.6106C17.7533 0.470128 17.8954 0.494453 18.0285 0.546032C18.1616 0.597612 18.283 0.675395 18.3854 0.774768C18.4879 0.874141 18.5694 0.99308 18.625 1.12453C18.6806 1.25598 18.7093 1.39726 18.7093 1.54C18.7093 1.68274 18.6806 1.82402 18.625 1.95547C18.5694 2.08692 18.4879 2.20586 18.3854 2.30523C18.283 2.4046 18.1616 2.48238 18.0285 2.53396C17.8954 2.58554 17.7533 2.60987 17.6106 2.6055H1.09865Z" fill="black"/>
</svg>
