<svg width="44" height="45" viewBox="0 0 44 45" fill="none" xmlns="http://www.w3.org/2000/svg">
<g filter="url(#filter0_d_8_569)">
<rect width="24" height="24" rx="12" transform="matrix(-1 0 0 1 34 6.87451)" fill="white" shape-rendering="crispEdges"/>
<path d="M25.4386 18.844C25.4386 19.0349 25.3669 19.1978 25.2179 19.3438L20.9149 23.6282C20.799 23.7517 20.6446 23.8135 20.468 23.8135C20.1094 23.8135 19.8281 23.5327 19.8281 23.1621C19.8281 22.9824 19.8998 22.8196 20.0212 22.696L23.8994 18.844L20.0212 14.9919C19.8998 14.8628 19.8281 14.7 19.8281 14.5203C19.8281 14.1553 20.1094 13.8745 20.468 13.8745C20.6446 13.8745 20.799 13.9363 20.9149 14.0598L25.2179 18.3442C25.3669 18.4902 25.4331 18.6531 25.4386 18.844Z" fill="black"/>
</g>
<defs>
<filter id="filter0_d_8_569" x="0" y="0.874512" width="44" height="44" filterUnits="userSpaceOnUse" color-interpolation-filters="sRGB">
<feFlood flood-opacity="0" result="BackgroundImageFix"/>
<feColorMatrix in="SourceAlpha" type="matrix" values="0 0 0 0 0 0 0 0 0 0 0 0 0 0 0 0 0 0 127 0" result="hardAlpha"/>
<feOffset dy="4"/>
<feGaussianBlur stdDeviation="5"/>
<feComposite in2="hardAlpha" operator="out"/>
<feColorMatrix type="matrix" values="0 0 0 0 0 0 0 0 0 0 0 0 0 0 0 0 0 0 0.25 0"/>
<feBlend mode="normal" in2="BackgroundImageFix" result="effect1_dropShadow_8_569"/>
<feBlend mode="normal" in="SourceGraphic" in2="effect1_dropShadow_8_569" result="shape"/>
</filter>
</defs>
</svg>
