<svg width="124" height="35" viewBox="0 0 124 35" fill="none" xmlns="http://www.w3.org/2000/svg">
<path d="M4.5477 34.287V33.893C4.5477 27.093 4.54981 20.296 4.55403 13.502C4.55403 13.259 4.47813 13.193 4.23777 13.194C2.85681 13.202 1.47373 13.194 0 13.194C0.495461 12.813 0.926618 12.476 1.36515 12.143C2.37611 11.374 3.39233 10.611 4.3959 9.83204C4.48443 9.74208 4.53279 9.62309 4.53083 9.50004C4.53083 6.90004 4.52697 4.30004 4.51924 1.70004C4.51924 1.43104 4.57616 1.31904 4.89558 1.32004C7.00392 1.33404 9.11227 1.33404 11.2206 1.32004C11.4894 1.32004 11.579 1.37904 11.5738 1.65004C11.5548 2.50504 11.5664 3.36204 11.5664 4.28304C11.6579 4.2483 11.7458 4.20544 11.8289 4.15504C13.5858 2.81571 15.3428 1.47471 17.0997 0.13204C17.2948 -0.0179596 17.435 -0.0749596 17.6732 0.11404C18.622 0.87204 19.6066 1.60004 20.5764 2.33804C21.7578 3.23671 22.9395 4.13671 24.1216 5.03804C25.5173 6.10471 26.9116 7.17137 28.3045 8.23804C29.5885 9.22004 30.8732 10.2007 32.1586 11.18C33.0167 11.832 33.879 12.48 34.8225 13.192H12.045C11.5179 13.192 11.5717 13.144 11.5717 13.634C11.5717 20.3814 11.5717 27.1287 11.5717 33.876V34.276L4.5477 34.287Z" fill="#0B5AA5"/>
<path d="M13.1086 26.833V25.301C13.1086 24.195 13.1086 23.089 13.1086 21.982C13.1086 21.79 13.0897 21.698 13.3964 21.698C16.4799 21.708 19.5633 21.681 22.6468 21.664H22.709C23.2719 21.687 23.2719 21.687 23.2719 21.129V14.562H30.2558V34.29H23.2698V33.936C23.2698 31.684 23.2635 29.431 23.2761 27.179C23.2761 26.9 23.1928 26.826 22.9072 26.828C19.7685 26.8367 16.6306 26.8387 13.4934 26.834L13.1086 26.833Z" fill="#0B5AA5"/>
<path d="M116.511 25.228C116.553 26.4528 116.303 27.6706 115.78 28.791C115.154 30.1297 114.056 31.2199 112.675 31.874C111.82 32.2685 110.902 32.525 109.958 32.633C109.034 32.7614 108.098 32.7785 107.17 32.684C105.309 32.5767 103.556 31.8193 102.248 30.558C101.332 29.6401 100.715 28.4908 100.47 27.248C100.076 25.531 100.181 23.7445 100.776 22.08C101.138 21.0718 101.761 20.1657 102.587 19.4446C103.414 18.7235 104.418 18.2104 105.507 17.952C106.626 17.6597 107.788 17.5411 108.947 17.601C110.472 17.6171 111.964 18.0212 113.269 18.771C114.477 19.5025 115.402 20.5866 115.904 21.86C116.337 22.9343 116.543 24.0785 116.511 25.228ZM111.685 25.228C111.596 24.549 111.533 23.868 111.412 23.195C111.311 22.5515 111.005 21.9526 110.535 21.478C110.234 21.2044 109.874 20.996 109.48 20.8674C109.086 20.7388 108.667 20.6929 108.252 20.733C107.652 20.7017 107.059 20.8656 106.571 21.1977C106.083 21.5298 105.729 22.0101 105.568 22.559C105.045 24.0825 104.982 25.7143 105.386 27.27C105.462 27.8722 105.754 28.4312 106.214 28.8532C106.673 29.2751 107.271 29.5342 107.908 29.587C108.648 29.7374 109.419 29.6071 110.059 29.2241C110.698 28.8411 111.154 28.2359 111.328 27.538C111.546 26.7847 111.666 26.009 111.685 25.228Z" fill="#0B5AA5"/>
<path d="M49.1139 25.178C49.1828 26.6123 48.8395 28.0374 48.1209 29.301C47.4996 30.3678 46.5645 31.2399 45.4296 31.811C44.6277 32.2201 43.7558 32.491 42.8542 32.611C41.9438 32.7517 41.0187 32.7853 40.0997 32.711C39.0589 32.6408 38.0368 32.4115 37.0731 32.032C35.6148 31.4421 34.431 30.371 33.7409 29.017C33.2706 28.0885 32.9929 27.083 32.9228 26.055C32.7404 24.5204 32.9819 22.9672 33.6239 21.548C34.1943 20.3198 35.1684 19.2996 36.4006 18.64C37.496 18.064 38.7119 17.7243 39.9616 17.645C41.5092 17.4875 43.0745 17.6583 44.544 18.145C45.8755 18.5945 47.0183 19.4398 47.8025 20.555C48.7464 21.9247 49.2057 23.544 49.1139 25.178ZM37.7604 25.189C37.7144 26.071 37.845 26.9532 38.1452 27.789C38.3594 28.4342 38.8302 28.9748 39.4577 29.296C40.124 29.6019 40.8744 29.7025 41.604 29.584C42.1028 29.5462 42.5771 29.3628 42.9617 29.059C43.6531 28.4709 44.0774 27.6516 44.1456 26.773C44.2204 25.973 44.2151 25.173 44.2162 24.373C44.2173 23.6971 44.0738 23.0279 43.7945 22.406C43.6693 22.0707 43.4715 21.7639 43.2136 21.5056C42.9558 21.2472 42.6437 21.043 42.2976 20.906C41.7442 20.7371 41.1601 20.6775 40.5814 20.731C40.1212 20.7354 39.6718 20.8632 39.2849 21.0996C38.898 21.336 38.5895 21.6714 38.3951 22.067C37.8997 23.0372 37.6802 24.1137 37.7604 25.189Z" fill="#0B5AA5"/>
<path d="M98.9257 25.929H87.9791C88.0097 26.2393 88.0583 26.5478 88.1246 26.853C88.2964 27.5136 88.6775 28.1083 89.2166 28.5571C89.7557 29.0059 90.4268 29.2872 91.1395 29.363C91.8079 29.4892 92.4885 29.5482 93.1699 29.539C94.6416 29.4915 96.0776 29.0962 97.3476 28.389C97.609 28.249 97.8504 28.073 98.1171 27.943C98.2711 27.8948 98.4315 27.8672 98.5936 27.861C98.6052 27.981 98.6199 28.061 98.6199 28.149C98.6199 29.175 98.6136 30.202 98.6199 31.228C98.631 31.3035 98.612 31.3803 98.5665 31.4431C98.5211 31.506 98.4526 31.5506 98.3743 31.568C97.1572 32.0373 95.8819 32.3572 94.5793 32.52C93.3035 32.6755 92.0131 32.6906 90.7337 32.565C89.1415 32.4607 87.6033 31.9749 86.2629 31.153C84.9035 30.2909 83.9391 28.972 83.5642 27.462C83.252 26.2247 83.2022 24.9408 83.4177 23.685C83.5981 22.4228 84.1371 21.2309 84.9768 20.237C85.9344 19.1224 87.2416 18.3266 88.7086 17.965C90.0183 17.6258 91.3823 17.5163 92.7334 17.642C93.87 17.7121 94.9767 18.0169 95.9761 18.535C97.0437 19.1115 97.8691 20.0195 98.3132 21.106C98.7303 22.0909 98.936 23.1448 98.9183 24.206C98.9257 24.767 98.9257 25.329 98.9257 25.929ZM88.0034 23.32C88.1014 23.328 88.172 23.338 88.2448 23.338C90.1339 23.338 92.024 23.338 93.9131 23.344C94.1555 23.344 94.2641 23.282 94.2293 23.044C94.203 22.868 94.1966 22.688 94.1629 22.514C94.1307 22.1176 93.9864 21.7367 93.7452 21.4115C93.504 21.0863 93.1749 20.8288 92.7925 20.666C92.2377 20.4391 91.6343 20.3394 91.0313 20.3752C90.4283 20.411 89.8428 20.5812 89.3221 20.872C88.8847 21.124 88.5297 21.4863 88.2968 21.9186C88.0639 22.3509 87.9623 22.8361 88.0034 23.32Z" fill="#0B5AA5"/>
<path d="M50.9018 18.0941H55.5317V18.4611C55.5317 20.6241 55.5211 22.7871 55.538 24.9491C55.536 25.6944 55.5782 26.4392 55.6645 27.1801C55.6537 27.4355 55.6997 27.6903 55.7995 27.9277C55.8994 28.1652 56.0509 28.38 56.2442 28.5583C56.4374 28.7365 56.6681 28.8741 56.9211 28.9621C57.1741 29.0501 57.4439 29.0865 57.7128 29.0691C58.8146 29.1493 59.9141 28.8879 60.8458 28.3241C60.922 28.2853 60.9835 28.2247 61.0213 28.1509C61.0592 28.0771 61.0715 27.9939 61.0566 27.9131C61.0566 24.7737 61.0566 21.6344 61.0566 18.4951V18.0951H65.7603V18.4181C65.7603 22.9134 65.7628 27.4084 65.7677 31.9031C65.7677 32.2131 65.6707 32.2851 65.3618 32.2811C64.042 32.2651 62.7264 32.2741 61.4024 32.2741H61.0482V30.7211C60.8647 30.8211 60.7467 30.8891 60.6328 30.9571C60.0098 31.3311 59.3952 31.7161 58.7659 32.0771C58.0791 32.4436 57.311 32.6516 56.5237 32.6841C55.5412 32.7766 54.5498 32.6392 53.6363 32.2841C53.0928 32.0701 52.6034 31.7492 52.2004 31.3425C51.7973 30.9359 51.4898 30.4528 51.2981 29.9251C51.0184 29.2079 50.8781 28.4487 50.8838 27.6841C50.8838 24.5647 50.8838 21.4451 50.8838 18.3251C50.8848 18.2478 50.8908 18.1706 50.9018 18.0941Z" fill="#0B5AA5"/>
<path d="M75.7919 21.327H68.4928V18.097H81.8808C81.8871 18.176 81.8998 18.262 81.8998 18.347C81.8998 19.085 81.9114 19.821 81.8924 20.559C81.8842 20.7318 81.8164 20.8973 81.6995 21.03C79.7984 23.0154 77.8907 24.995 75.9764 26.969C75.464 27.499 74.9464 28.026 74.4415 28.563C74.3613 28.6787 74.2965 28.8033 74.2486 28.934H82.002V32.274H81.671C77.2765 32.274 72.882 32.2764 68.4875 32.281C68.166 32.281 68.0817 32.194 68.0912 31.894C68.1133 31.158 68.0912 30.42 68.107 29.682C68.1148 29.5093 68.183 29.3439 68.3009 29.212C70.0846 27.3654 71.8767 25.525 73.6772 23.691C74.334 23.018 74.9939 22.346 75.6475 21.67C75.7202 21.5856 75.7871 21.4967 75.8478 21.404L75.7919 21.327Z" fill="#0B5AA5"/>
<path d="M118.168 25.173C118.168 23.579 118.182 21.986 118.168 20.391C118.17 19.8346 118.344 19.291 118.668 18.8272C118.992 18.3634 119.452 17.9997 119.991 17.781C120.45 17.5906 120.956 17.5272 121.451 17.5979C121.946 17.6687 122.41 17.8709 122.789 18.181C123.165 18.4576 123.466 18.8161 123.665 19.2263C123.863 19.6364 123.955 20.0861 123.932 20.537C123.939 23.655 123.939 26.7727 123.932 29.89C123.959 30.4874 123.785 31.0774 123.435 31.5749C123.086 32.0724 122.578 32.4517 121.987 32.658C121.536 32.8236 121.046 32.8693 120.569 32.7902C120.093 32.7111 119.649 32.5101 119.284 32.209C118.932 31.9505 118.648 31.6175 118.456 31.2365C118.264 30.8556 118.168 30.4373 118.176 30.015C118.159 28.402 118.168 26.788 118.168 25.173ZM122.456 28.93C122.582 28.8282 122.685 28.7028 122.757 28.5615C122.83 28.4203 122.871 28.2663 122.878 28.1093C122.885 27.9523 122.858 27.7957 122.798 27.6492C122.738 27.5027 122.646 27.3695 122.53 27.258C122.859 27.18 122.925 26.929 122.765 26.413C121.973 26.413 121.175 26.407 120.377 26.413C119.649 26.42 119.717 26.283 119.7 27.072C119.7 27.286 119.778 27.351 119.99 27.346C120.427 27.336 120.863 27.333 121.297 27.346C121.472 27.3494 121.644 27.3833 121.805 27.446C121.868 27.465 121.924 27.5013 121.965 27.5502C122.006 27.5991 122.03 27.6585 122.036 27.7208C122.041 27.7831 122.027 27.8454 121.994 27.9C121.962 27.9545 121.914 27.9987 121.855 28.027C121.743 28.094 121.615 28.1338 121.483 28.143C121.12 28.161 120.758 28.153 120.394 28.159C119.602 28.172 119.727 28.046 119.702 28.828C119.695 29.059 119.785 29.114 120.011 29.107C120.519 29.093 121.027 29.096 121.537 29.107C121.599 29.1022 121.661 29.1096 121.72 29.1288C121.778 29.1481 121.832 29.1787 121.878 29.2188C121.924 29.2588 121.96 29.3075 121.985 29.3616C122.009 29.4157 122.022 29.4741 122.022 29.533C121.984 29.8 121.776 29.876 121.525 29.876C121.141 29.876 120.757 29.876 120.373 29.876C119.668 29.886 119.71 29.739 119.706 30.545C119.706 30.73 119.76 30.813 119.97 30.81C120.593 30.799 121.216 30.82 121.837 30.796C122.052 30.7922 122.262 30.7331 122.444 30.625C122.582 30.5261 122.694 30.3986 122.771 30.2522C122.848 30.1058 122.889 29.9445 122.89 29.7807C122.891 29.617 122.853 29.4552 122.777 29.3079C122.702 29.1605 122.592 29.0306 122.456 28.93ZM121.24 25.909C121.454 25.9351 121.67 25.9159 121.875 25.853C122.079 25.7901 122.267 25.6849 122.423 25.5451C122.58 25.4053 122.702 25.2343 122.78 25.0444C122.859 24.8546 122.892 24.6505 122.878 24.447C122.897 24.2394 122.87 24.0302 122.796 23.8337C122.722 23.6373 122.605 23.4584 122.451 23.3093C122.297 23.1603 122.111 23.0446 121.906 22.9703C121.701 22.896 121.481 22.8649 121.262 22.879C120.845 22.8862 120.448 23.0476 120.155 23.3288C119.862 23.6099 119.696 23.9885 119.694 24.3838C119.691 24.7791 119.851 25.1597 120.14 25.4445C120.429 25.7293 120.824 25.8966 121.24 25.909ZM120.519 22.525C120.489 21.63 120.717 21.255 121.284 21.245C121.811 21.237 122.041 21.623 122.022 22.495C122.678 22.817 122.847 22.731 122.865 22.036C122.903 21.754 122.862 21.4675 122.745 21.2057C122.628 20.9439 122.44 20.7162 122.2 20.546C121.928 20.3596 121.603 20.256 121.268 20.2492C120.933 20.2425 120.603 20.3327 120.323 20.508C120.072 20.6637 119.874 20.8867 119.756 21.1487C119.638 21.4107 119.605 21.7 119.66 21.98C119.698 22.738 119.768 22.778 120.519 22.525ZM120.251 19.925C120.651 19.925 120.883 19.747 120.883 19.435C120.888 19.3564 120.875 19.2777 120.845 19.2042C120.815 19.1307 120.769 19.0641 120.71 19.0087C120.651 18.9533 120.58 18.9104 120.503 18.8829C120.425 18.8553 120.342 18.8438 120.259 18.849C120.178 18.8425 120.097 18.8524 120.021 18.8782C119.945 18.904 119.875 18.945 119.817 18.9985C119.759 19.052 119.714 19.1167 119.685 19.1882C119.656 19.2598 119.643 19.3364 119.648 19.413C119.649 19.744 119.868 19.93 120.251 19.93V19.925Z" fill="#0B5AA5"/>
<path d="M121.252 24.966C120.751 24.935 120.409 24.715 120.409 24.407C120.409 24.099 120.783 23.854 121.278 23.869C121.453 23.8585 121.628 23.8931 121.783 23.969C121.929 24.069 122.1 24.262 122.09 24.405C122.042 24.5896 121.92 24.7493 121.751 24.851C121.594 24.9192 121.424 24.9583 121.252 24.966Z" fill="#0B5AA5"/>
</svg>
