<svg width="38" height="48" viewBox="0 0 38 48" fill="none" xmlns="http://www.w3.org/2000/svg">
<rect x="0.5" y="5.49756" width="37" height="37.0049" rx="18.5" stroke="#0B5AA5"/>
<path d="M16 17C15.7348 17 15.4804 17.1054 15.2929 17.2929C15.1054 17.4804 15 17.7348 15 18C15 18.2652 15.1054 18.5196 15.2929 18.7071C15.4804 18.8947 15.7348 19 16 19C16.2652 19 16.5196 18.8947 16.7071 18.7071C16.8946 18.5196 17 18.2652 17 18C17 17.7348 16.8946 17.4804 16.7071 17.2929C16.5196 17.1054 16.2652 17 16 17ZM13.17 17C13.3766 16.4145 13.7597 15.9074 14.2666 15.5488C14.7735 15.1902 15.3791 14.9976 16 14.9976C16.6209 14.9976 17.2265 15.1902 17.7334 15.5488C18.2403 15.9074 18.6234 16.4145 18.83 17H26C26.2652 17 26.5196 17.1054 26.7071 17.2929C26.8946 17.4804 27 17.7348 27 18C27 18.2652 26.8946 18.5196 26.7071 18.7071C26.5196 18.8947 26.2652 19 26 19H18.83C18.6234 19.5855 18.2403 20.0926 17.7334 20.4512C17.2265 20.8099 16.6209 21.0025 16 21.0025C15.3791 21.0025 14.7735 20.8099 14.2666 20.4512C13.7597 20.0926 13.3766 19.5855 13.17 19H12C11.7348 19 11.4804 18.8947 11.2929 18.7071C11.1054 18.5196 11 18.2652 11 18C11 17.7348 11.1054 17.4804 11.2929 17.2929C11.4804 17.1054 11.7348 17 12 17H13.17ZM22 23C21.7348 23 21.4804 23.1054 21.2929 23.2929C21.1054 23.4804 21 23.7348 21 24C21 24.2652 21.1054 24.5196 21.2929 24.7071C21.4804 24.8947 21.7348 25 22 25C22.2652 25 22.5196 24.8947 22.7071 24.7071C22.8946 24.5196 23 24.2652 23 24C23 23.7348 22.8946 23.4804 22.7071 23.2929C22.5196 23.1054 22.2652 23 22 23ZM19.17 23C19.3766 22.4145 19.7597 21.9074 20.2666 21.5488C20.7735 21.1902 21.3791 20.9976 22 20.9976C22.6209 20.9976 23.2265 21.1902 23.7334 21.5488C24.2403 21.9074 24.6234 22.4145 24.83 23H26C26.2652 23 26.5196 23.1054 26.7071 23.2929C26.8946 23.4804 27 23.7348 27 24C27 24.2652 26.8946 24.5196 26.7071 24.7071C26.5196 24.8947 26.2652 25 26 25H24.83C24.6234 25.5855 24.2403 26.0926 23.7334 26.4512C23.2265 26.8099 22.6209 27.0025 22 27.0025C21.3791 27.0025 20.7735 26.8099 20.2666 26.4512C19.7597 26.0926 19.3766 25.5855 19.17 25H12C11.7348 25 11.4804 24.8947 11.2929 24.7071C11.1054 24.5196 11 24.2652 11 24C11 23.7348 11.1054 23.4804 11.2929 23.2929C11.4804 23.1054 11.7348 23 12 23H19.17ZM16 29C15.7348 29 15.4804 29.1054 15.2929 29.2929C15.1054 29.4804 15 29.7348 15 30C15 30.2652 15.1054 30.5196 15.2929 30.7071C15.4804 30.8947 15.7348 31 16 31C16.2652 31 16.5196 30.8947 16.7071 30.7071C16.8946 30.5196 17 30.2652 17 30C17 29.7348 16.8946 29.4804 16.7071 29.2929C16.5196 29.1054 16.2652 29 16 29ZM13.17 29C13.3766 28.4145 13.7597 27.9074 14.2666 27.5488C14.7735 27.1902 15.3791 26.9976 16 26.9976C16.6209 26.9976 17.2265 27.1902 17.7334 27.5488C18.2403 27.9074 18.6234 28.4145 18.83 29H26C26.2652 29 26.5196 29.1054 26.7071 29.2929C26.8946 29.4804 27 29.7348 27 30C27 30.2652 26.8946 30.5196 26.7071 30.7071C26.5196 30.8947 26.2652 31 26 31H18.83C18.6234 31.5855 18.2403 32.0926 17.7334 32.4512C17.2265 32.8099 16.6209 33.0025 16 33.0025C15.3791 33.0025 14.7735 32.8099 14.2666 32.4512C13.7597 32.0926 13.3766 31.5855 13.17 31H12C11.7348 31 11.4804 30.8947 11.2929 30.7071C11.1054 30.5196 11 30.2652 11 30C11 29.7348 11.1054 29.4804 11.2929 29.2929C11.4804 29.1054 11.7348 29 12 29H13.17Z" fill="#0B5AA5"/>
<rect x="24.5" y="2.5" width="13" height="13" rx="6.5" fill="#0B5AA5"/>
<rect x="24.5" y="2.5" width="13" height="13" rx="6.5" stroke="white"/>
<path d="M29.484 10.76C29.996 10.3173 30.3987 9.95467 30.692 9.672C30.9907 9.384 31.2387 9.08533 31.436 8.776C31.6333 8.46667 31.732 8.15733 31.732 7.848C31.732 7.528 31.6547 7.27733 31.5 7.096C31.3507 6.91467 31.1133 6.824 30.788 6.824C30.4733 6.824 30.228 6.92533 30.052 7.128C29.8813 7.32533 29.7907 7.592 29.78 7.928H28.9C28.916 7.32 29.0973 6.856 29.444 6.536C29.796 6.21067 30.2413 6.048 30.78 6.048C31.3613 6.048 31.8147 6.208 32.14 6.528C32.4707 6.848 32.636 7.27467 32.636 7.808C32.636 8.192 32.5373 8.56267 32.34 8.92C32.148 9.272 31.916 9.58933 31.644 9.872C31.3773 10.1493 31.036 10.472 30.62 10.84L30.26 11.16H32.796V11.92H28.908V11.256L29.484 10.76Z" fill="white"/>
</svg>
