<svg width="28" height="28" viewBox="0 0 28 28" fill="none" xmlns="http://www.w3.org/2000/svg">
<path d="M13.9339 16.447C12.7768 16.447 11.6458 16.1039 10.6838 15.4611C9.72173 14.8183 8.97193 13.9047 8.52916 12.8357C8.08639 11.7668 7.97055 10.5905 8.19627 9.45573C8.422 8.32094 8.97915 7.27857 9.79729 6.46043C10.6154 5.64229 11.6578 5.08514 12.7926 4.85942C13.9274 4.63369 15.1036 4.74955 16.1726 5.19232C17.2415 5.63509 18.1552 6.38489 18.798 7.34692C19.4408 8.30895 19.7839 9.43999 19.7839 10.597C19.7823 12.148 19.1654 13.6351 18.0687 14.7318C16.9719 15.8286 15.4849 16.4454 13.9339 16.447ZM13.9339 6.16501C13.0573 6.16501 12.2004 6.42494 11.4716 6.91194C10.7427 7.39893 10.1747 8.09111 9.83922 8.90095C9.50377 9.71079 9.41601 10.6019 9.58702 11.4617C9.75803 12.3214 10.1801 13.1111 10.8 13.7309C11.4198 14.3507 12.2095 14.7728 13.0692 14.9438C13.929 15.1149 14.8201 15.0271 15.6299 14.6916C16.4397 14.3562 17.1319 13.7881 17.6189 13.0593C18.1059 12.3305 18.3659 11.4736 18.3659 10.597C18.3656 9.42165 17.8986 8.29451 17.0675 7.46341C16.2364 6.6323 15.1092 6.16527 13.9339 6.16501Z" fill="#020202"/>
<path d="M13.9328 27.721C11.219 27.721 8.56622 26.9163 6.30981 25.4086C4.0534 23.9009 2.29476 21.758 1.25625 19.2508C0.21774 16.7436 -0.0539855 13.9848 0.475442 11.3232C1.00487 8.66155 2.31167 6.21671 4.23058 4.29779C6.1495 2.37887 8.59435 1.07207 11.256 0.542643C13.9176 0.0132152 16.6764 0.284937 19.1836 1.32345C21.6908 2.36196 23.8337 4.12061 25.3414 6.37702C26.8491 8.63343 27.6538 11.2862 27.6538 14C27.6511 17.6382 26.2047 21.1267 23.6321 23.6993C21.0595 26.2719 17.571 27.7183 13.9328 27.721ZM13.9328 1.7C11.5001 1.7 9.12201 2.42138 7.09928 3.77292C5.07656 5.12447 3.50003 7.04546 2.56907 9.29299C1.63811 11.5405 1.39454 14.0136 1.86913 16.3996C2.34373 18.7856 3.51519 20.9772 5.23538 22.6974C6.95556 24.4176 9.14721 25.5891 11.5332 26.0637C13.9191 26.5383 16.3923 26.2947 18.6398 25.3637C20.8873 24.4328 22.8083 22.8562 24.1599 20.8335C25.5114 18.8108 26.2328 16.4327 26.2328 14C26.2243 10.7404 24.9257 7.61679 22.6209 5.31192C20.316 3.00705 17.1924 1.70844 13.9328 1.7Z" fill="#020202"/>
<path d="M5.3188 23.571L4.1488 22.791C5.20728 21.1762 6.64894 19.8485 8.3452 18.9262C10.0415 18.0039 11.9396 17.5158 13.8704 17.5053C15.8011 17.4948 17.7044 17.9623 19.4106 18.866C21.1168 19.7698 22.5728 21.0818 23.6488 22.685L22.4788 23.465C21.5283 22.0585 20.2452 20.9084 18.7435 20.1168C17.2419 19.3251 15.568 18.9164 13.8704 18.9269C12.1729 18.9374 10.5042 19.3667 9.01241 20.1769C7.52062 20.987 6.25189 22.1529 5.3188 23.571Z" fill="#020202"/>
</svg>
