<svg width="13" height="12" viewBox="0 0 13 12" fill="none" xmlns="http://www.w3.org/2000/svg">
<path d="M0.5 12V9.16667L9.3 0.383333C9.43333 0.261111 9.58067 0.166667 9.742 0.1C9.90333 0.0333334 10.0727 0 10.25 0C10.4278 0 10.6 0.0333334 10.7667 0.1C10.9333 0.166667 11.0778 0.266667 11.2 0.4L12.1167 1.33333C12.25 1.45556 12.3473 1.6 12.4087 1.76667C12.47 1.93333 12.5004 2.1 12.5 2.26667C12.5 2.44444 12.4696 2.614 12.4087 2.77533C12.3478 2.93667 12.2504 3.08378 12.1167 3.21667L3.33333 12H0.5ZM10.2333 3.2L11.1667 2.26667L10.2333 1.33333L9.3 2.26667L10.2333 3.2Z" fill="black"/>
</svg>
